<svg xmlns="http://www.w3.org/2000/svg" xmlns:xlink="http://www.w3.org/1999/xlink" width="486" height="480" viewBox="0 0 486 480">
  <defs>
    <filter id="Trazado_3417" x="1.447" y="6.923" width="486.948" height="474.923" filterUnits="userSpaceOnUse">
      <feOffset dy="3" input="SourceAlpha"/>
      <feGaussianBlur stdDeviation="3" result="blur"/>
      <feFlood flood-opacity="0.161"/>
      <feComposite operator="in" in2="blur"/>
      <feComposite in="SourceGraphic"/>
    </filter>
    <clipPath id="clip-Mesa_de_trabajo_1">
      <rect width="486" height="480"/>
    </clipPath>
  </defs>
  <g id="Mesa_de_trabajo_1" data-name="Mesa de trabajo – 1" clip-path="url(#clip-Mesa_de_trabajo_1)">
    <rect width="486" height="480" fill="#fff"/>
    <g id="Componente_456_1" data-name="Componente 456 – 1" transform="translate(10.447 12.923)">
      <g id="Grupo_3133" data-name="Grupo 3133" transform="translate(213.553 208.077)">
        <g transform="matrix(1, 0, 0, 1, -224, -221)" filter="url(#Trazado_3417)">
          <g id="Trazado_3417-2" data-name="Trazado 3417" transform="translate(10.45 12.92)" fill="none" opacity="0.9">
            <path d="M55.17,0H413.777a55,55,0,0,1,55.17,54.831V402.093a55,55,0,0,1-55.17,54.831H55.17A55,55,0,0,1,0,402.093V54.831A55,55,0,0,1,55.17,0Z" stroke="none"/>
            <path d="M 55.1702880859375 12.99996948242188 C 31.91748046875 12.99996948242188 13 31.76516723632812 13 54.830810546875 L 13 402.0926818847656 C 13 425.1582336425781 31.91748046875 443.9234619140625 55.1702880859375 443.9234619140625 L 413.7774353027344 443.9234619140625 C 437.0302734375 443.9234619140625 455.9478454589844 425.1582336425781 455.9478454589844 402.0926818847656 L 455.9478454589844 54.830810546875 C 455.9478454589844 31.76516723632812 437.0302734375 12.99996948242188 413.7774353027344 12.99996948242188 L 55.1702880859375 12.99996948242188 M 55.1702880859375 -3.0517578125e-05 L 413.7774353027344 -3.0517578125e-05 C 444.2471313476562 -3.0517578125e-05 468.9478454589844 24.54861450195312 468.9478454589844 54.830810546875 C 468.9478454589844 54.830810546875 468.9478454589844 225.8966674804688 468.9478454589844 312.7120971679688 C 468.9478454589844 399.527587890625 468.9478454589844 402.0926818847656 468.9478454589844 402.0926818847656 C 468.9478454589844 432.3749694824219 444.2471313476562 456.9234619140625 413.7774353027344 456.9234619140625 L 55.1702880859375 456.9234619140625 C 24.7005615234375 456.9234619140625 0 432.3749694824219 0 402.0926818847656 L 0 54.830810546875 C 0 24.54861450195312 24.7005615234375 -3.0517578125e-05 55.1702880859375 -3.0517578125e-05 Z" stroke="none" fill="#2d77c2"/>
          </g>
        </g>
      </g>
      <g id="_-person_90382" data-name="-person_90382" transform="translate(28.303 23.077)">
        <path id="_-person_90382-2" data-name="-person_90382" d="M206.692,206.692A101.346,101.346,0,1,0,105.346,105.346,101.318,101.318,0,0,0,206.692,206.692Zm0,50.673C139.044,257.366,4,291.317,4,358.712v50.673H409.385V358.712C409.385,291.317,274.341,257.366,206.692,257.366Z" transform="translate(-4 -4)" fill="#2d77c2" stroke="#2d77c2" stroke-width="1"/>
      </g>
    </g>
  </g>
</svg>
